Input #0, video4linux2,v4l2, from '/dev/video0':
  Duration: N/A, start: 1607586482.402426, bitrate: 283115 kb/s
    Stream #0:0: Video: rawvideo (I420 / 0x30323449), yuv420p, 1024x768, 283115 kb/s, 30 fps, 30 tbr, 1000k tbn, 1000k tbc
Stream mapping:
  Stream #0:0 -> #0:0 (rawvideo (native) -> h264 (h264_omx))
Press [q] to stop, [?] for help
[h264_omx @ 0x2473330] Using OMX.broadcom.video_encode
Output #0, mp4, to 'raw_h264omx.mp4':
  Metadata:
    encoder         : Lavf58.64.100
    Stream #0:0: Video: h264 (h264_omx) (avc1 / 0x31637661), yuv420p(progressive), 1024x768, q=2-31, 8000 kb/s, 30 fps, 15360 tbn, 30 tbc
    Metadata:
      encoder         : Lavc58.114.100 h264_omx
frame=   13 fps=0.0 q=-0.0 size=       0kB time=00:00:00.30 bitrate=   1.3kbits/s dup=10 drop=0 speed=0.596x    frame=   29 fps= 29 q=-0.0 size=       0kB time=00:00:00.83 bitrate=   0.5kbits/s dup=23 drop=0 speed=0.828x    frame=   47 fps= 30 q=-0.0 size=       0kB time=00:00:01.43 bitrate=   0.3kbits/s dup=38 drop=0 speed=0.925x    frame=   59 fps= 29 q=-0.0 size=     256kB time=00:00:01.83 bitrate=1144.1kbits/s dup=48 drop=0 speed=0.894x    frame=   78 fps= 29 q=-0.0 size=     512kB time=00:00:02.46 bitrate=1700.5kbits/s dup=64 drop=0 speed=0.909x    frame=   96 fps= 30 q=-0.0 size=     768kB time=00:00:03.06 bitrate=2051.6kbits/s dup=79 drop=0 speed=0.951x    frame=  108 fps= 29 q=-0.0 size=     768kB time=00:00:03.46 bitrate=1814.9kbits/s dup=89 drop=0 speed=0.929x    frame=  127 fps= 30 q=-0.0 size=    1024kB time=00:00:04.10 bitrate=2046.1kbits/s dup=105 drop=0 speed=0.965x    frame=  139 fps= 29 q=-0.0 size=    1280kB time=00:00:04.50 bitrate=2330.2kbits/s dup=115 drop=0 speed=0.947x    frame=  158 fps= 30 q=-0.0 size=    1536kB time=00:00:05.13 bitrate=2451.3kbits/s dup=131 drop=0 speed=0.971x    frame=  170 fps= 29 q=-0.0 size=    1536kB time=00:00:05.53 bitrate=2274.1kbits/s dup=141 drop=0 speed=0.956x    frame=  189 fps= 30 q=-0.0 size=    1792kB time=00:00:06.16 bitrate=2380.6kbits/s dup=157 drop=0 speed=0.975x    frame=  201 fps= 29 q=-0.0 size=    2048kB time=00:00:06.56 bitrate=2554.9kbits/s dup=167 drop=0 speed=0.962x    frame=  218 fps= 30 q=-0.0 size=    2048kB time=00:00:07.13 bitrate=2352.0kbits/s dup=181 drop=0 speed=0.973x    frame=  234 fps= 30 q=-0.0 size=    2304kB time=00:00:07.66 bitrate=2461.9kbits/s dup=194 drop=0 speed=0.978x    frame=  252 fps= 30 q=-0.0 size=    2560kB time=00:00:08.23 bitrate=2547.2kbits/s dup=209 drop=0 speed=0.977x    frame=  270 fps= 30 q=-0.0 size=    2816kB time=00:00:08.83 bitrate=2611.6kbits/s dup=224 drop=0 speed=0.988x    frame=  285 fps= 30 q=-0.0 size=    3072kB time=00:00:09.33 bitrate=2696.4kbits/s dup=236 drop=0 speed=0.988x    frame=  296 fps= 30 q=-0.0 size=    3072kB time=00:00:09.70 bitrate=2594.4kbits/s dup=245 drop=0 speed=0.974x    frame=  313 fps= 30 q=-0.0 size=    3328kB time=00:00:10.26 bitrate=2655.5kbits/s dup=259 drop=0 speed=0.981x    frame=  330 fps= 30 q=-0.0 size=    3584kB time=00:00:10.83 bitrate=2710.2kbits/s dup=273 drop=0 speed=0.983x    frame=  347 fps= 30 q=-0.0 size=    3840kB time=00:00:11.40 bitrate=2759.4kbits/s dup=287 drop=0 speed=0.977x    frame=  365 fps= 30 q=-0.0 size=    4096kB time=00:00:12.00 bitrate=2796.2kbits/s dup=302 drop=0 speed=0.981x    frame=  384 fps= 30 q=-0.0 size=    4096kB time=00:00:12.63 bitrate=2656.0kbits/s dup=318 drop=0 speed=0.992x    frame=  396 fps= 30 q=-0.0 size=    4352kB time=00:00:13.03 bitrate=2735.4kbits/s dup=328 drop=0 speed=0.985x    frame=  412 fps= 30 q=-0.0 size=    4608kB time=00:00:13.56 bitrate=2782.5kbits/s dup=341 drop=0 speed=0.984x    frame=  430 fps= 30 q=-0.0 size=    4864kB time=00:00:14.16 bitrate=2812.7kbits/s dup=356 drop=0 speed=0.99x    frame=  446 fps= 30 q=-0.0 size=    4864kB time=00:00:14.70 bitrate=2710.6kbits/s dup=369 drop=0 speed=0.991x    frame=  458 fps= 30 q=-0.0 size=    5120kB time=00:00:15.10 bitrate=2777.7kbits/s dup=379 drop=0 speed=0.985x    frame=  476 fps= 30 q=-0.0 size=    5120kB time=00:00:15.70 bitrate=2671.5kbits/s dup=394 drop=0 speed=0.989x    frame=  489 fps= 30 q=-0.0 size=    5376kB time=00:00:16.13 bitrate=2729.8kbits/s dup=405 drop=0 speed=0.984x    frame=  507 fps= 30 q=-0.0 size=    5632kB time=00:00:16.73 bitrate=2757.2kbits/s dup=420 drop=0 speed=0.99x    frame=  519 fps= 30 q=-0.0 size=    5632kB time=00:00:17.13 bitrate=2692.9kbits/s dup=430 drop=0 speed=0.984x    frame=  538 fps= 30 q=-0.0 size=    5888kB time=00:00:17.76 bitrate=2714.9kbits/s dup=446 drop=0 speed=0.991x    frame=  550 fps= 30 q=-0.0 size=    6144kB time=00:00:18.16 bitrate=2770.6kbits/s dup=456 drop=0 speed=0.985x    frame=  568 fps= 30 q=-0.0 size=    6144kB time=00:00:18.76 bitrate=2682.0kbits/s dup=471 drop=0 speed=0.99x    frame=  581 fps= 30 q=-0.0 size=    6400kB time=00:00:19.20 bitrate=2730.7kbits/s dup=482 drop=0 speed=0.987x    frame=  599 fps= 30 q=-0.0 size=    6656kB time=00:00:19.80 bitrate=2753.8kbits/s dup=497 drop=0 speed=0.992x    frame=  611 fps= 30 q=-0.0 size=    6656kB time=00:00:20.20 bitrate=2699.3kbits/s dup=507 drop=0 speed=0.987x    frame=  629 fps= 30 q=-0.0 size=    6912kB time=00:00:20.80 bitrate=2722.3kbits/s dup=522 drop=0 speed=0.991x    frame=  641 fps= 30 q=-0.0 size=    7168kB time=00:00:21.20 bitrate=2769.8kbits/s dup=532 drop=0 speed=0.986x    frame=  660 fps= 30 q=-0.0 size=    7424kB time=00:00:21.83 bitrate=2785.5kbits/s dup=548 drop=0 speed=0.993x    frame=  672 fps= 30 q=-0.0 size=    7424kB time=00:00:22.23 bitrate=2735.4kbits/s dup=558 drop=0 speed=0.988x    frame=  690 fps= 30 q=-0.0 size=    7680kB time=00:00:22.83 bitrate=2755.4kbits/s dup=573 drop=0 speed=0.991x    frame=  702 fps= 30 q=-0.0 size=    7936kB time=00:00:23.23 bitrate=2798.2kbits/s dup=583 drop=0 speed=0.987x    frame=  721 fps= 30 q=-0.0 size=    8192kB time=00:00:23.86 bitrate=2811.8kbits/s dup=599 drop=0 speed=0.992x    frame=  738 fps= 30 q=-0.0 size=    8448kB time=00:00:24.43 bitrate=2832.5kbits/s dup=613 drop=0 speed=0.992x    frame=  755 fps= 30 q=-0.0 size=    8704kB time=00:00:25.00 bitrate=2852.1kbits/s dup=627 drop=0 speed=0.993x    frame=  767 fps= 30 q=-0.0 size=    8704kB time=00:00:25.40 bitrate=2807.2kbits/s dup=637 drop=0 speed=0.989x    frame=  785 fps= 30 q=-0.0 size=    8960kB time=00:00:26.00 bitrate=2823.1kbits/s dup=652 drop=0 speed=0.992x    frame=  798 fps= 30 q=-0.0 size=    9216kB time=00:00:26.43 bitrate=2856.2kbits/s dup=663 drop=0 speed=0.99x    frame=  816 fps= 30 q=-0.0 size=    9216kB time=00:00:27.03 bitrate=2792.8kbits/s dup=678 drop=0 speed=0.993x    frame=  834 fps= 30 q=-0.0 size=    9472kB time=00:00:27.63 bitrate=2808.0kbits/s dup=693 drop=0 speed=0.997x    frame=  846 fps= 30 q=-0.0 size=    9728kB time=00:00:28.03 bitrate=2842.8kbits/s dup=703 drop=0 speed=0.993x    frame=  864 fps= 30 q=-0.0 size=    9984kB time=00:00:28.63 bitrate=2856.4kbits/s dup=718 drop=0 speed=0.996x    frame=  876 fps= 30 q=-0.0 size=    9984kB time=00:00:29.03 bitrate=2817.1kbits/s dup=728 drop=0 speed=0.993x    frame=  894 fps= 30 q=-0.0 size=   10240kB time=00:00:29.63 bitrate=2830.8kbits/s dup=743 drop=0 speed=0.996x    frame=  906 fps= 30 q=-0.0 size=   10496kB time=00:00:30.03 bitrate=2862.9kbits/s dup=753 drop=0 speed=0.993x    frame=  924 fps= 30 q=-0.0 size=   10752kB time=00:00:30.63 bitrate=2875.3kbits/s dup=768 drop=0 speed=0.993x    frame=  941 fps= 30 q=-0.0 size=   11008kB time=00:00:31.20 bitrate=2890.3kbits/s dup=782 drop=0 speed=0.99x    frame=  959 fps= 30 q=-0.0 size=   11264kB time=00:00:31.80 bitrate=2901.7kbits/s dup=797 drop=0 speed=0.993x    frame=  975 fps= 30 q=-0.0 size=   11264kB time=00:00:32.33 bitrate=2853.9kbits/s dup=810 drop=0 speed=0.994x    frame=  992 fps= 30 q=-0.0 size=   11520kB time=00:00:32.90 bitrate=2868.5kbits/s dup=824 drop=0 speed=0.994x    frame= 1010 fps= 30 q=-0.0 size=   11776kB time=00:00:33.50 bitrate=2879.7kbits/s dup=839 drop=0 speed=0.997x    frame= 1022 fps= 30 q=-0.0 size=   11776kB time=00:00:33.90 bitrate=2845.7kbits/s dup=849 drop=0 speed=0.994x    frame= 1041 fps= 30 q=-0.0 size=   12032kB time=00:00:34.53 bitrate=2854.2kbits/s dup=865 drop=0 speed=0.997x    frame= 1053 fps= 30 q=-0.0 size=   12288kB time=00:00:34.93 bitrate=2881.6kbits/s dup=875 drop=0 speed=0.995x    frame= 1065 fps= 30 q=-0.0 size=   12288kB time=00:00:35.33 bitrate=2849.0kbits/s dup=885 drop=0 speed=0.992x    frame= 1084 fps= 30 q=-0.0 size=   12544kB time=00:00:35.96 bitrate=2857.1kbits/s dup=901 drop=0 speed=0.995x    frame= 1100 fps= 30 q=-0.0 size=   12800kB time=00:00:36.50 bitrate=2872.8kbits/s dup=914 drop=0 speed=0.996x    frame= 1110 fps= 30 q=-0.0 size=   12800kB time=00:00:36.83 bitrate=2846.8kbits/s dup=922 drop=0 speed=0.992x    frame= 1129 fps= 30 q=-0.0 size=   13056kB time=00:00:37.46 bitrate=2854.7kbits/s dup=938 drop=0 speed=0.995x    frame= 1141 fps= 30 q=-0.0 size=   13056kB time=00:00:37.86 bitrate=2824.5kbits/s dup=948 drop=0 speed=0.992x    frame= 1162 fps= 30 q=-0.0 size=   13312kB time=00:00:38.56 bitrate=2827.6kbits/s dup=966 drop=0 speed=0.997x    frame= 1174 fps= 30 q=-0.0 size=   13568kB time=00:00:38.96 bitrate=2852.4kbits/s dup=976 drop=0 speed=0.995x    frame= 1192 fps= 30 q=-0.0 size=   13824kB time=00:00:39.56 bitrate=2862.2kbits/s dup=991 drop=0 speed=0.997x    More than 1000 frames duplicated
frame= 1204 fps= 30 q=-0.0 size=   13824kB time=00:00:39.96 bitrate=2833.5kbits/s dup=1001 drop=0 speed=0.995x    frame= 1217 fps= 30 q=-0.0 size=   14080kB time=00:00:40.40 bitrate=2855.0kbits/s dup=1012 drop=0 speed=0.993x    frame= 1235 fps= 30 q=-0.0 size=   14336kB time=00:00:41.00 bitrate=2864.4kbits/s dup=1027 drop=0 speed=0.995x    frame= 1252 fps= 30 q=-0.0 size=   14592kB time=00:00:41.56 bitrate=2875.8kbits/s dup=1041 drop=0 speed=0.996x    frame= 1264 fps= 30 q=-0.0 size=   14592kB time=00:00:41.96 bitrate=2848.4kbits/s dup=1051 drop=0 speed=0.994x    frame= 1281 fps= 30 q=-0.0 size=   14848kB time=00:00:42.53 bitrate=2859.8kbits/s dup=1065 drop=0 speed=0.995x    frame= 1298 fps= 30 q=-0.0 size=   15104kB time=00:00:43.10 bitrate=2870.8kbits/s dup=1079 drop=0 speed=0.994x    frame= 1319 fps= 30 q=-0.0 size=   15360kB time=00:00:43.80 bitrate=2872.8kbits/s dup=1097 drop=0 speed=0.998x    frame= 1330 fps= 30 q=-0.0 size=   15360kB time=00:00:44.16 bitrate=2849.0kbits/s dup=1106 drop=0 speed=0.995x    frame= 1349 fps= 30 q=-0.0 size=   15616kB time=00:00:44.80 bitrate=2855.5kbits/s dup=1122 drop=0 speed=0.998x    frame= 1361 fps= 30 q=-0.0 size=   15872kB time=00:00:45.20 bitrate=2876.6kbits/s dup=1132 drop=0 speed=0.994x    frame= 1379 fps= 30 q=-0.0 size=   15872kB time=00:00:45.80 bitrate=2838.9kbits/s dup=1147 drop=0 speed=0.996x    frame= 1392 fps= 30 q=-0.0 size=   16128kB time=00:00:46.23 bitrate=2857.7kbits/s dup=1158 drop=0 speed=0.994x    frame= 1410 fps= 30 q=-0.0 size=   16384kB time=00:00:46.83 bitrate=2865.9kbits/s dup=1173 drop=0 speed=0.996x    frame= 1423 fps= 30 q=-0.0 size=   16640kB time=00:00:47.26 bitrate=2884.0kbits/s dup=1184 drop=0 speed=0.994x    frame= 1440 fps= 30 q=-0.0 size=   16640kB time=00:00:47.83 bitrate=2849.8kbits/s dup=1198 drop=0 speed=0.995x    frame= 1456 fps= 30 q=-0.0 size=   16896kB time=00:00:48.36 bitrate=2861.7kbits/s dup=1211 drop=0 speed=0.996x    frame= 1474 fps= 30 q=-0.0 size=   17152kB time=00:00:48.96 bitrate=2869.5kbits/s dup=1226 drop=0 speed=0.997x    frame= 1486 fps= 30 q=-0.0 size=   17408kB time=00:00:49.36 bitrate=2888.7kbits/s dup=1236 drop=0 speed=0.994x    frame= 1504 fps= 30 q=-0.0 size=   17408kB time=00:00:49.96 bitrate=2854.0kbits/s dup=1251 drop=0 speed=0.996x    frame= 1516 fps= 30 q=-0.0 size=   17664kB time=00:00:50.36 bitrate=2873.0kbits/s dup=1261 drop=0 speed=0.994x    frame= 1535 fps= 30 q=-0.0 size=   17920kB time=00:00:51.00 bitrate=2878.4kbits/s dup=1277 drop=0 speed=0.997x    frame= 1551 fps= 30 q=-0.0 size=   18176kB time=00:00:51.53 bitrate=2889.4kbits/s dup=1290 drop=0 speed=0.997x    frame= 1562 fps= 30 q=-0.0 size=   18176kB time=00:00:51.90 bitrate=2868.9kbits/s dup=1299 drop=0 speed=0.995x    frame= 1580 fps= 30 q=-0.0 size=   18432kB time=00:00:52.50 bitrate=2876.1kbits/s dup=1314 drop=0 speed=0.996x    frame= 1592 fps= 30 q=-0.0 size=   18432kB time=00:00:52.90 bitrate=2854.4kbits/s dup=1324 drop=0 speed=0.994x    frame= 1610 fps= 30 q=-0.0 size=   18688kB time=00:00:53.50 bitrate=2861.5kbits/s dup=1339 drop=0 speed=0.996x    frame= 1625 fps= 30 q=-0.0 size=   18944kB time=00:00:54.00 bitrate=2873.9kbits/s dup=1351 drop=0 speed=0.996x    frame= 1643 fps= 30 q=-0.0 size=   18944kB time=00:00:54.60 bitrate=2842.3kbits/s dup=1366 drop=0 speed=0.995x    frame= 1661 fps= 30 q=-0.0 size=   19200kB time=00:00:55.20 bitrate=2849.4kbits/s dup=1381 drop=0 speed=0.997x    frame= 1677 fps= 30 q=-0.0 size=   19456kB time=00:00:55.73 bitrate=2859.8kbits/s dup=1394 drop=0 speed=0.997x    frame= 1693 fps= 30 q=-0.0 size=   19712kB time=00:00:56.26 bitrate=2869.9kbits/s dup=1407 drop=0 speed=0.997x    frame= 1710 fps= 30 q=-0.0 size=   19712kB time=00:00:56.83 bitrate=2841.3kbits/s dup=1421 drop=0 speed=0.998x    frame= 1720 fps= 30 q=-0.0 size=   19968kB time=00:00:57.16 bitrate=2861.4kbits/s dup=1429 drop=0 speed=0.995x    frame= 1737 fps= 30 q=-0.0 size=   20224kB time=00:00:57.73 bitrate=2869.7kbits/s dup=1443 drop=0 speed=0.996x    frame= 1753 fps= 30 q=-0.0 size=   20224kB time=00:00:58.26 bitrate=2843.4kbits/s dup=1456 drop=0 speed=0.997x    frame= 1770 fps= 30 q=-0.0 size=   20480kB time=00:00:58.83 bitrate=2851.7kbits/s dup=1470 drop=0 speed=0.998x    frame= 1786 fps= 30 q=-0.0 size=   20736kB time=00:00:59.36 bitrate=2861.4kbits/s dup=1483 drop=0 speed=0.998x    frame= 1798 fps= 30 q=-0.0 size=   20736kB time=00:00:59.76 bitrate=2842.2kbits/s dup=1493 drop=0 speed=0.996x    frame= 1803 fps= 30 q=-0.0 Lsize=   21106kB time=00:01:00.06 bitrate=2878.5kbits/s dup=1498 drop=0 speed=   1x    
video:21098kB audio:0kB subtitle:0kB other streams:0kB global headers:0kB muxing overhead: 0.041562%
